<svg width="32" height="32" viewBox="0 0 32 32" fill="none" xmlns="http://www.w3.org/2000/svg">
<path fill-rule="evenodd" clip-rule="evenodd" d="M1.33337 20V14.1333L6.25337 2.66663H22.6667V19.76L13.1067 29.3333L10.92 27.1733L12.4134 20H1.33337ZM30.6667 2.66663H25.3334V18.6666H30.6667V2.66663Z" fill="white"/>
<path d="M1.33337 14.1333L0.873884 13.9361L0.833374 14.0306V14.1333H1.33337ZM1.33337 20H0.833374V20.5H1.33337V20ZM6.25337 2.66663V2.16663H5.92383L5.79388 2.46947L6.25337 2.66663ZM22.6667 2.66663H23.1667V2.16663H22.6667V2.66663ZM22.6667 19.76L23.0205 20.1133L23.1667 19.9669V19.76H22.6667ZM13.1067 29.3333L12.7553 29.689L13.1091 30.0385L13.4605 29.6866L13.1067 29.3333ZM10.92 27.1733L10.4305 27.0714L10.3751 27.3378L10.5687 27.529L10.92 27.1733ZM12.4134 20L12.9029 20.1019L13.0282 19.5H12.4134V20ZM25.3334 2.66663V2.16663H24.8334V2.66663H25.3334ZM30.6667 2.66663H31.1667V2.16663H30.6667V2.66663ZM25.3334 18.6666H24.8334V19.1666H25.3334V18.6666ZM30.6667 18.6666V19.1666H31.1667V18.6666H30.6667ZM0.833374 14.1333V20H1.83337V14.1333H0.833374ZM5.79388 2.46947L0.873884 13.9361L1.79286 14.3304L6.71286 2.86378L5.79388 2.46947ZM22.6667 2.16663H6.25337V3.16663H22.6667V2.16663ZM23.1667 19.76V2.66663H22.1667V19.76H23.1667ZM13.4605 29.6866L23.0205 20.1133L22.3129 19.4067L12.7529 28.98L13.4605 29.6866ZM10.5687 27.529L12.7553 29.689L13.4581 28.9776L11.2714 26.8176L10.5687 27.529ZM11.9239 19.8981L10.4305 27.0714L11.4095 27.2752L12.9029 20.1019L11.9239 19.8981ZM1.33337 20.5H12.4134V19.5H1.33337V20.5ZM25.3334 3.16663H30.6667V2.16663H25.3334V3.16663ZM25.8334 18.6666V2.66663H24.8334V18.6666H25.8334ZM30.6667 18.1666H25.3334V19.1666H30.6667V18.1666ZM30.1667 2.66663V18.6666H31.1667V2.66663H30.1667Z" fill="#AA4C4C"/>
</svg>
