<svg width="32" height="32" viewBox="0 0 32 32" fill="none" xmlns="http://www.w3.org/2000/svg">
<path fill-rule="evenodd" clip-rule="evenodd" d="M16 2.66663C11.24 2.66663 6.97333 4.71996 4.01333 7.99996L16 29.3333L27.9867 7.99996C25.04 4.73329 20.76 2.66663 16 2.66663ZM9.33333 9.33329C9.33333 7.86663 10.5333 6.66663 12 6.66663C13.4667 6.66663 14.6667 7.86663 14.6667 9.33329C14.6667 10.8 13.4667 12 12 12C10.5333 12 9.33333 10.8 9.33333 9.33329ZM13.3333 17.3333C13.3333 18.8 14.5333 20 16 20C17.4667 20 18.6667 18.8 18.6667 17.3333C18.6667 15.8666 17.4667 14.6666 16 14.6666C14.5333 14.6666 13.3333 15.8666 13.3333 17.3333Z" fill="#323232"/>
</svg>
