<svg width="32" height="32" viewBox="0 0 32 32" fill="none" xmlns="http://www.w3.org/2000/svg">
<path fill-rule="evenodd" clip-rule="evenodd" d="M9.33331 12.24L18.8933 2.66663L21.08 4.82663L19.5866 12H30.6666V17.8666L25.7466 29.3333H9.33331V12.24ZM6.66665 13.3333H1.33331V29.3333H6.66665V13.3333Z" fill="white"/>
<path d="M18.8933 2.66663L19.2447 2.31091L18.8909 1.96144L18.5395 2.31332L18.8933 2.66663ZM9.33331 12.24L8.97951 11.8867L8.83331 12.0331V12.24H9.33331ZM21.08 4.82663L21.5695 4.92853L21.6249 4.66213L21.4314 4.47091L21.08 4.82663ZM19.5866 12L19.0971 11.8981L18.9718 12.5H19.5866V12ZM30.6666 12H31.1666V11.5H30.6666V12ZM30.6666 17.8666L31.1261 18.0638L31.1666 17.9694V17.8666H30.6666ZM25.7466 29.3333V29.8333H26.0762L26.2061 29.5304L25.7466 29.3333ZM9.33331 29.3333H8.83331V29.8333H9.33331V29.3333ZM1.33331 13.3333V12.8333H0.833313V13.3333H1.33331ZM6.66665 13.3333H7.16665V12.8333H6.66665V13.3333ZM1.33331 29.3333H0.833313V29.8333H1.33331V29.3333ZM6.66665 29.3333V29.8333H7.16665V29.3333H6.66665ZM18.5395 2.31332L8.97951 11.8867L9.68711 12.5933L19.2471 3.01993L18.5395 2.31332ZM21.4314 4.47091L19.2447 2.31091L18.5419 3.02234L20.7286 5.18234L21.4314 4.47091ZM20.0762 12.1019L21.5695 4.92853L20.5905 4.72472L19.0971 11.8981L20.0762 12.1019ZM30.6666 11.5H19.5866V12.5H30.6666V11.5ZM31.1666 17.8666V12H30.1666V17.8666H31.1666ZM26.2061 29.5304L31.1261 18.0638L30.2072 17.6695L25.2872 29.1361L26.2061 29.5304ZM9.33331 29.8333H25.7466V28.8333H9.33331V29.8333ZM8.83331 12.24V29.3333H9.83331V12.24H8.83331ZM1.33331 13.8333H6.66665V12.8333H1.33331V13.8333ZM1.83331 29.3333V13.3333H0.833313V29.3333H1.83331ZM6.66665 28.8333H1.33331V29.8333H6.66665V28.8333ZM6.16665 13.3333V29.3333H7.16665V13.3333H6.16665Z" fill="#5A733D"/>
</svg>
