<svg width="32" height="32" viewBox="0 0 32 32" fill="none" xmlns="http://www.w3.org/2000/svg">
<path fill-rule="evenodd" clip-rule="evenodd" d="M9.33333 7.99996C10.8133 7.99996 12 6.81329 12 5.33329C12 3.85329 10.8133 2.66663 9.33333 2.66663C7.85333 2.66663 6.66667 3.85329 6.66667 5.33329C6.66667 6.81329 7.85333 7.99996 9.33333 7.99996ZM6.66667 19.3333V29.3333H12V19.3333H14V9.33329H4.66667V19.3333H6.66667ZM23.3333 21.3333V29.3333H19.3333V21.3333H15.3333L19.3333 9.33329H23.3333L27.3333 21.3333H23.3333ZM24 5.33329C24 6.81329 22.8133 7.99996 21.3333 7.99996C19.8533 7.99996 18.6667 6.81329 18.6667 5.33329C18.6667 3.85329 19.8533 2.66663 21.3333 2.66663C22.8133 2.66663 24 3.85329 24 5.33329Z" fill="#323232"/>
</svg>
